<svg xmlns="http://www.w3.org/2000/svg" viewBox="0 0 64 64"><g data-name="Shopping Bag"><path d="M33 13.208V20h2v-7a8.985 8.985 0 0 0-.651-3.348A5.336 5.336 0 0 0 33 13.208zM15 26a5.009 5.009 0 0 0 4.9-4h-9.8a5.009 5.009 0 0 0 4.9 4zm2-6h2v-7a7.008 7.008 0 0 1 7-7 6.938 6.938 0 0 1 3.01.682 11.1 11.1 0 0 1 1.327-1.558A8.994 8.994 0 0 0 17 13z"/><path d="M10 60h10V25.89a6.979 6.979 0 0 1-10 0zm36-34a1 1 0 0 0 1-1V13a9 9 0 0 0-18 0v12a1 1 0 0 0 2 0V13.208a7.123 7.123 0 0 1 6.083-7.149 7.2 7.2 0 0 1 .9-.058A7.005 7.005 0 0 1 45 13v12a1 1 0 0 0 1 1zM32 43h12v2H32z"/><path d="M54 22h-5v3a3 3 0 0 1-6 0v-3H33v3a3 3 0 0 1-6 0v-3h-5v38h32Zm-6 20a1 1 0 0 1-1 1h-1v2h1a1 1 0 0 1 1 1v3a2 2 0 0 1-2 2H30a2 2 0 0 1-2-2v-3a1 1 0 0 1 1-1h1v-2h-1a1 1 0 0 1-1-1v-2a5.006 5.006 0 0 1 5-5h10a5.006 5.006 0 0 1 5 5Z"/><path d="M30 47h16v2H30zM43 37v2h-2v-2h-2v2h-2v-2h-2v2h-2v-2a3 3 0 0 0-3 3v1h16v-1a3 3 0 0 0-3-3Z"/></g></svg>