<svg xmlns="http://www.w3.org/2000/svg" viewBox="0 0 64 64"><g data-name="Shopping Bag"><path d="M22 46a1 1 0 0 0 1 1h18a1 1 0 0 0 1-1v-3H22ZM24 39h16v2H24z"/><path d="M52 27.147 49.256 18H14.744L12 27.147V57a3 3 0 0 0 3 3h34a3 3 0 0 0 3-3ZM44 38a1 1 0 0 1-1 1h-1v2h1a1 1 0 0 1 1 1v4a3 3 0 0 1-3 3H23a3 3 0 0 1-3-3v-4a1 1 0 0 1 1-1h1v-2h-1a1 1 0 0 1-1-1v-4a5.006 5.006 0 0 1 5-5h14a5.006 5.006 0 0 1 5 5Z"/><path d="M39 31v2h-2v-2h-4v2h-2v-2h-4v2h-2v-2a3 3 0 0 0-3 3v3h20v-3a3 3 0 0 0-3-3zM25 10h14a1 1 0 0 0 0-2H25a1 1 0 0 0 0 2z"/><path d="M18 16h28V5a1 1 0 0 0-1-1H19a1 1 0 0 0-1 1Zm7-10h14a3 3 0 0 1 0 6H25a3 3 0 0 1 0-6Z"/></g></svg>