<svg xmlns="http://www.w3.org/2000/svg" enable-background="new 0 0 128 128" viewBox="0 0 128 128"><rect width="126" height="24.4" x="1" y="68.2" fill="#303C42"/><rect width="126" height="24.4" x="1" y="97.6" fill="#303C42"/><path fill="#303C42" d="M70.7,26c-4.2,1.9-7.2,6.2-7.2,11.1c0,6.7,5.5,12.2,12.2,12.2c6.7,0,12.2-5.5,12.2-12.2   c0-6.7-5.4-12.2-12.2-12.2C72.5,15.3,62.7,7,62.2,6.6c-1.1-0.9-2.7-0.8-3.6,0.3c-0.9,1.1-0.8,2.7,0.3,3.6   C61.7,12.8,68.3,19.4,70.7,26z"/><path fill="#303C42" d="M108.3,25.4l-16.4,5.8c0.7,1.9,1.1,3.9,1.1,6c0,9.5-7.7,17.3-17.3,17.3c-7.6,0-14.1-5-16.4-11.8L1,63.1h126   C127,49.3,120.2,36.4,108.3,25.4z"/></svg>