<svg xmlns="http://www.w3.org/2000/svg" viewBox="0 0 64 64"><path d="M48 16.5a2.5 2.5 0 0 1-2.5 2.5H52v-6h-8a1.993 1.993 0 0 0-1.722 1H45.5a2.5 2.5 0 0 1 2.5 2.5Z"/><circle cx="53" cy="50" r="1"/><path d="M48.957 46a6.931 6.931 0 0 1-1.407 1.512A5.872 5.872 0 0 0 47 50a6 6 0 1 0 10.457-4zM53 53a3 3 0 1 1 3-3 3 3 0 0 1-3 3zM33 28a1 1 0 0 0-1-1h-7v2h8zm-23 1h13v-2H10a1 1 0 0 0 0 2z"/><path d="M6 47h2v-3a7.008 7.008 0 0 1 7-7h12a3 3 0 0 1 3 3v7h13.227a4.978 4.978 0 0 0 4.873-3.875l1.885-8.173L48.124 21H46v19a5.006 5.006 0 0 1-5 5h-8a1 1 0 0 1-1-1V31H17A11.013 11.013 0 0 0 6 42zM5 35a1 1 0 0 0-1 1 1.026 1.026 0 0 0 1.008.987 12.86 12.86 0 0 1 .8-1.569A.991.991 0 0 0 5 35z"/><path d="M10 45h18v2H10zM51.787 36.038l-1.739 7.536c-.034.148-.094.282-.137.426h10.034a9 9 0 0 0-8.158-7.962Z"/><circle cx="18" cy="50" r="1"/><path d="M28 40a1 1 0 0 0-1-1H15a5.009 5.009 0 0 0-4.9 4H28zm8-23.5a.5.5 0 0 0 .5.5h9a.5.5 0 0 0 0-1h-9a.5.5 0 0 0-.5.5zM12.09 49a6 6 0 1 0 11.82 0h-3.094A2.966 2.966 0 0 1 21 50a3 3 0 0 1-6 0 2.966 2.966 0 0 1 .184-1zM14 11h14v-1a3 3 0 0 0-2-2.816V9h-2V7h-2v2h-2V7h-2v2h-2V7.184A3 3 0 0 0 14 10zM16 13h10v2H16zM14 17h14v2H14zM6 6h4v2H6zM2 10h2v2H2zM6 10h4v2H6z"/><path d="M4 56h56v2H4z"/></svg>