<svg xmlns="http://www.w3.org/2000/svg" enable-background="new 0 0 24 24" viewBox="0 0 24 24"><path d="M15.5,9.2c0.2-0.3,0.4-0.6,0.7-0.9L5.5,2.1C5,1.9,4.4,2,4.1,2.5C4.1,2.7,4,2.8,4,3v12.1C4.4,15,4.8,15,5.1,15
	C9.4,15.1,13.4,12.9,15.5,9.2z M10,9.4c0-0.6,0.4-1,1-1s1,0.4,1,1v1c0,0.6-0.4,1-1,1s-1-0.4-1-1V9.4z M7.5,6.4c0.6,0,1,0.4,1,1
	s-0.4,1-1,1s-1-0.4-1-1C6.5,6.8,7,6.4,7.5,6.4z M7.5,10.9c0.6,0,1,0.4,1,1s-0.4,1-1,1s-1-0.4-1-1C6.5,11.3,7,10.9,7.5,10.9z M20,9.4
	L20,9.4L20,9.4C20,9.4,20,9.4,20,9.4c-0.1,0-0.1-0.1-0.2-0.1c-0.1,0-0.1-0.1-0.2-0.1c-0.1,0-0.1,0-0.2,0c-0.1,0-0.1,0-0.2,0
	c-0.1,0-0.1,0-0.2,0c-0.1,0-0.1,0-0.2,0c-0.1,0-0.1,0-0.2,0c-0.1,0-0.1,0-0.2,0c-0.1,0-0.1,0-0.2,0.1c-0.1,0-0.1,0-0.2,0.1
	c-0.1,0-0.1,0.1-0.1,0.1c-0.1,0-0.1,0.1-0.2,0.1c0,0-0.1,0.1-0.1,0.1c-0.1,0-0.1,0.1-0.2,0.1c0,0-0.1,0.1-0.1,0.2
	c0,0.1-0.1,0.1-0.1,0.2c0,0,0,0,0,0c-0.8,1.5-1.9,2.7-3.2,3.8c-0.2,0.2-0.4,0.3-0.6,0.5c-0.6,0.4-1.3,0.8-1.9,1.2
	c-0.9,0.4-1.8,0.8-2.7,1c-0.5,0.1-0.9,0.2-1.4,0.3c-0.3,0.1-0.7,0.1-1,0.1c-0.3,0-0.6,0-0.9,0c-0.1,0-0.3,0-0.4,0c0,0,0,0-0.1,0
	c-0.1,0-0.1,0-0.2,0c-0.1,0-0.1,0-0.2,0c-0.1,0-0.1,0-0.2,0.1c-0.1,0-0.1,0-0.2,0.1c-0.1,0-0.1,0.1-0.2,0.1c-0.1,0-0.1,0.1-0.2,0.1
	c-0.1,0-0.1,0.1-0.2,0.1c0,0-0.1,0.1-0.1,0.1c0,0-0.1,0.1-0.1,0.1c0,0-0.1,0.1-0.1,0.1c0,0.1-0.1,0.1-0.1,0.2c0,0.1-0.1,0.1-0.1,0.2
	c0,0.1,0,0.1-0.1,0.2c0,0.1,0,0.1-0.1,0.2c0,0.1,0,0.1,0,0.2c0,0.1,0,0.1,0,0.2c0,0,0,0,0,0.1v0c0,0,0,0,0,0c0,0.4,0.1,0.8,0.3,1.1
	c0.1,0.1,0.1,0.2,0.2,0.3C3.9,20.7,4.4,21,5,21c0.2,0,0.4,0,0.5,0c0.8,0,1.6-0.1,2.3-0.2c5.4-0.7,10.2-3.9,12.9-8.7
	c0.2-0.4,0.3-0.7,0.2-1.1C20.9,10.3,20.6,9.8,20,9.4z"/></svg>